# xmcd CD database file
#
# Track frame offsets:
#	150
#	18862
#	38037
#	57465
#	75610
#	91350
#	110547
#	128340
#	147977
#	163047
#	180930
#	204657
#	223955
#	239360
#
# Disc length: 3507 seconds
#
# Revision: 0
# Processed by: cddbd v1.5.1PL0 Copyright (c) Steve Scherf et al.
# Submitted via: CDex 1.51
#
DISCID=bb0db10e
DTITLE=Dan Colehour - One For The Old Man
DYEAR=2004
DGENRE=Country
TTITLE0=Quarry Town
TTITLE1=This Time
TTITLE2=The Likes Of Us
TTITLE3=Lucky Man
TTITLE4=Still Your Ruth
TTITLE5=Another Man's Crime
TTITLE6=Leaving Meridian
TTITLE7=Something That Happens
TTITLE8=She Thinks I Still Care
TTITLE9=Go Easy
TTITLE10=Father's Son
TTITLE11=My America
TTITLE12=Outlaw For Sure
TTITLE13=Your Secret's Safe With Me
EXTD=YEAR: 2004
EXTT0=
EXTT1=
EXTT2=
EXTT3=
EXTT4=
EXTT5=
EXTT6=
EXTT7=
EXTT8=
EXTT9=
EXTT10=
EXTT11=
EXTT12=
EXTT13=
PLAYORDER=
